# xmcd CD database file
#
# Track frame offsets:
#	183
#	11428
#	25020
#	36915
#	49360
#	61468
#	73840
#	86498
#	98975
#	115208
#	126138
#	136373
#	147623
#	158875
#	169413
#	181295
#	193600
#	208038
#	220290
#	231090
#	241010
#	255705
#	267545
#	278085
#	290888
#	305530
#
# Disc length: 4248 seconds
#
# Revision: 2
# Processed by: cddbd v1.5.1PL0 Copyright (c) Steve Scherf et al.
# Submitted via: CDex 1.51
#
DISCID=9410961a
DTITLE=Yuro, Timi - The Lost Voice Of Soul (Collection 1961-68)
DYEAR=1993
DGENRE=Reggae
TTITLE0=Hurt
TTITLE1=Just Say I Love Him
TTITLE2=Trying
TTITLE3=Smile
TTITLE4=Let Me Call You Sweetheart
TTITLE5=Count Everything
TTITLE6=I Know (I Love You)
TTITLE7=What's A Matter Baby
TTITLE8=Only Love Me
TTITLE9=That's Right, Walk On By
TTITLE10=Should I Ever Love Again
TTITLE11=The Love Of A Boy
TTITLE12=I Ain't Gonna Cry No More
TTITLE13=Insult To Injury
TTITLE14=Make The World Go Away
TTITLE15=Gotta Travel On
TTITLE16=Down In The Valley
TTITLE17=Leavin' On Your Mind
TTITLE18=She's Got To You
TTITLE19=I'd Fight The World
TTITLE20=Permanently Lonely
TTITLE21=Are You Sure?
TTITLE22=A Legend In My Time
TTITLE23=Call Me
TTITLE24=Something Bad On My Mind
TTITLE25=It'll Never Be Over For Me
EXTD=YEAR: 1993
EXTT0=
EXTT1=
EXTT2=
EXTT3=
EXTT4=
EXTT5=
EXTT6=
EXTT7=
EXTT8=
EXTT9=
EXTT10=
EXTT11=
EXTT12=
EXTT13=
EXTT14=
EXTT15=
EXTT16=
EXTT17=
EXTT18=
EXTT19=
EXTT20=
EXTT21=
EXTT22=
EXTT23=
EXTT24=
EXTT25=
PLAYORDER=
